# xmcd
#
# Track frame offsets: 
#        150
#        11911
#        22642
#        37855
#
# Disc length: 691 seconds
#
# Revision: 0
# Processed by: cddbd v1.5.2PL0 Copyright (c) Steve Scherf et al.
# Submitted via: ExactAudioCopyFreeDBPlugin 1.0
#
DISCID=1d02b104
DTITLE=The Rockin' Home Blues Band - Rockin' Home The Blues
DYEAR=2013
DGENRE=Blues
TTITLE0=Rockin' Home The Blues
TTITLE1=Busy Lizzy
TTITLE2=Why Don't You Look At Me
TTITLE3=Bye Bye Willie
EXTD=
EXTT0=
EXTT1=
EXTT2=
EXTT3=
PLAYORDER=
